<svg width="48" height="48" viewBox="0 0 48 48" fill="none" xmlns="http://www.w3.org/2000/svg">
  <path d="M16 20C18.2091 20 20 18.2091 20 16C20 13.7909 18.2091 12 16 12C13.7909 12 12 13.7909 12 16C12 18.2091 13.7909 20 16 20Z" fill="#D4AF37"/>
  <path d="M32 36C34.2091 36 36 34.2091 36 32C36 29.7909 34.2091 28 32 28C29.7909 28 28 29.7909 28 32C28 34.2091 29.7909 36 32 36Z" fill="#D4AF37"/>
  <path d="M16 20C18.2091 20 20 18.2091 20 16C20 13.7909 18.2091 12 16 12" stroke="#D4AF37" stroke-width="2"/>
  <path d="M32 28C29.7909 28 28 29.7909 28 32C28 34.2091 29.7909 36 32 36" stroke="#D4AF37" stroke-width="2"/>
  <path d="M20 16L28 32" stroke="#D4AF37" stroke-width="2" stroke-linecap="round"/>
</svg>
