<svg width="48" height="48" viewBox="0 0 48 48" fill="none" xmlns="http://www.w3.org/2000/svg">
  <path d="M8 32C10.2091 32 12 30.2091 12 28C12 25.7909 10.2091 24 8 24C5.79086 24 4 25.7909 4 28C4 30.2091 5.79086 32 8 32Z" fill="#D4AF37"/>
  <path d="M40 32C42.2091 32 44 30.2091 44 28C44 25.7909 42.2091 24 40 24C37.7909 24 36 25.7909 36 28C36 30.2091 37.7909 32 40 32Z" fill="#D4AF37"/>
  <path d="M24 32C26.2091 32 28 30.2091 28 28C28 25.7909 26.2091 24 24 24C21.7909 24 20 25.7909 20 28C20 30.2091 21.7909 32 24 32Z" fill="#D4AF37"/>
  <path d="M44 16H4C4 11.5817 7.58172 8 12 8H36C40.4183 8 44 11.5817 44 16Z" stroke="#D4AF37" stroke-width="2"/>
  <path d="M40 40H8C8 35.5817 11.5817 32 16 32H32C36.4183 32 40 35.5817 40 40Z" stroke="#D4AF37" stroke-width="2"/>
</svg>
